<?xml version="1.0" encoding="UTF-8" standalone="no"?>
<!-- Generator: Adobe Illustrator 19.0.0, SVG Export Plug-In . SVG Version: 6.00 Build 0)  -->

<svg
   xmlns:dc="http://purl.org/dc/elements/1.1/"
   xmlns:cc="http://creativecommons.org/ns#"
   xmlns:rdf="http://www.w3.org/1999/02/22-rdf-syntax-ns#"
   xmlns:svg="http://www.w3.org/2000/svg"
   xmlns="http://www.w3.org/2000/svg"
   xmlns:sodipodi="http://sodipodi.sourceforge.net/DTD/sodipodi-0.dtd"
   xmlns:inkscape="http://www.inkscape.org/namespaces/inkscape"
   version="1.1"
   id="Capa_1"
   x="0px"
   y="0px"
   viewBox="0 0 512 512"
   style="enable-background:new 0 0 512 512;"
   xml:space="preserve"
   sodipodi:docname="windowsforms.svg"
   inkscape:version="0.92.4 (5da689c313, 2019-01-14)"><metadata
   id="metadata4662"><rdf:RDF><cc:Work
       rdf:about=""><dc:format>image/svg+xml</dc:format><dc:type
         rdf:resource="http://purl.org/dc/dcmitype/StillImage" /></cc:Work></rdf:RDF></metadata><defs
   id="defs4660" /><sodipodi:namedview
   pagecolor="#ffffff"
   bordercolor="#666666"
   borderopacity="1"
   objecttolerance="10"
   gridtolerance="10"
   guidetolerance="10"
   inkscape:pageopacity="0"
   inkscape:pageshadow="2"
   inkscape:window-width="1920"
   inkscape:window-height="1017"
   id="namedview4658"
   showgrid="false"
   inkscape:zoom="1.6601562"
   inkscape:cx="256"
   inkscape:cy="207.81176"
   inkscape:window-x="1912"
   inkscape:window-y="-8"
   inkscape:window-maximized="1"
   inkscape:current-layer="Capa_1" />
<g
   id="g4595"
   transform="matrix(1,0,0,1.1185885,1.7647059e-7,-30.358646)"
   style="stroke-width:0.94550705">
	<g
   id="g4593"
   style="stroke-width:0.94550705">
		<path
   d="M 0,100.571 V 283.428 H 100.571 310.857 V 201.142 128 100.571 Z m 36.571,45.715 h 128 c 5.047,0 9.143,4.096 9.143,9.143 0,5.047 -4.096,9.143 -9.143,9.143 h -128 c -5.047,0 -9.143,-4.096 -9.143,-9.143 10e-4,-5.047 4.097,-9.143 9.143,-9.143 z m 0,36.571 h 36.571 c 5.047,0 9.143,4.096 9.143,9.143 0,5.047 -4.096,9.143 -9.143,9.143 H 36.571 c -5.047,0 -9.143,-4.096 -9.143,-9.143 0,-5.047 4.097,-9.143 9.143,-9.143 z m 128,54.857 h -128 c -5.047,0 -9.143,-4.096 -9.143,-9.143 0,-5.047 4.096,-9.143 9.143,-9.143 h 128 c 5.047,0 9.143,4.096 9.143,9.143 0,5.047 -4.096,9.143 -9.143,9.143 z m 82.286,0 h -36.571 c -5.047,0 -9.143,-4.096 -9.143,-9.143 0,-5.047 4.096,-9.143 9.143,-9.143 h 36.571 c 5.047,0 9.143,4.096 9.143,9.143 0,5.047 -4.096,9.143 -9.143,9.143 z m 27.429,-36.571 H 118.857 c -5.047,0 -9.143,-4.096 -9.143,-9.143 0,-5.047 4.096,-9.143 9.143,-9.143 h 155.429 c 5.047,0 9.143,4.096 9.143,9.143 0,5.047 -4.096,9.143 -9.143,9.143 z m 0,-36.572 h -64 c -5.047,0 -9.143,-4.096 -9.143,-9.143 0,-5.047 4.096,-9.143 9.143,-9.143 h 64 c 5.047,0 9.143,4.096 9.143,9.143 0,5.047 -4.096,9.143 -9.143,9.143 z"
   id="path4591"
   inkscape:connector-curvature="0"
   style="stroke-width:0.94550705" />
	</g>
</g>
<g
   id="g4601"
   transform="matrix(1,0,0,1.1185885,1.7647059e-7,-30.358646)"
   style="stroke-width:0.94550705">
	<g
   id="g4599"
   style="stroke-width:0.94550705">
		<path
   d="M 0,27.429 V 82.286 H 310.857 V 27.429 Z M 182.857,64 h -9.143 c -5.047,0 -9.143,-4.096 -9.143,-9.143 0,-5.047 4.096,-9.143 9.143,-9.143 h 9.143 c 5.047,0 9.143,4.096 9.143,9.143 0,5.047 -4.096,9.143 -9.143,9.143 z m 45.714,0 h -9.143 c -5.047,0 -9.143,-4.096 -9.143,-9.143 0,-5.047 4.096,-9.143 9.143,-9.143 h 9.143 c 5.047,0 9.143,4.096 9.143,9.143 0,5.047 -4.096,9.143 -9.143,9.143 z m 45.715,0 h -9.143 C 260.096,64 256,59.904 256,54.857 c 0,-5.047 4.096,-9.143 9.143,-9.143 h 9.143 c 5.047,0 9.143,4.096 9.143,9.143 0,5.047 -4.096,9.143 -9.143,9.143 z"
   id="path4597"
   inkscape:connector-curvature="0"
   style="stroke-width:0.94550705" />
	</g>
</g>
<g
   id="g4607"
   transform="matrix(1,0,0,1.1185885,1.7647059e-7,-30.358646)"
   style="stroke-width:0.94550705">
	<g
   id="g4605"
   style="stroke-width:0.94550705">
		<path
   d="m 438.857,228.571 v 54.857 H 512 v -54.857 z m 45.714,36.572 h -18.286 c -5.047,0 -9.143,-4.096 -9.143,-9.143 0,-5.047 4.096,-9.143 9.143,-9.143 h 18.286 c 5.047,0 9.143,4.096 9.143,9.143 0,5.047 -4.096,9.143 -9.143,9.143 z"
   id="path4603"
   inkscape:connector-curvature="0"
   style="stroke-width:0.94550705" />
	</g>
</g>
<g
   id="g4613"
   transform="matrix(1,0,0,1.1185885,1.7647059e-7,-30.358646)"
   style="stroke-width:0.94550705">
	<g
   id="g4611"
   style="stroke-width:0.94550705">
		<path
   d="m 438.857,301.714 v 100.571 c 0,5.047 -4.096,9.143 -9.143,9.143 H 201.143 v 73.143 H 512 V 301.714 Z m -64,155.429 h -128 c -5.047,0 -9.143,-4.096 -9.143,-9.143 0,-5.047 4.096,-9.143 9.143,-9.143 h 128 c 5.047,0 9.143,4.096 9.143,9.143 0,5.047 -4.096,9.143 -9.143,9.143 z m 91.429,0 h -45.714 c -5.047,0 -9.143,-4.096 -9.143,-9.143 0,-5.047 4.096,-9.143 9.143,-9.143 h 45.714 c 5.047,0 9.143,4.096 9.143,9.143 0,5.047 -4.096,9.143 -9.143,9.143 z"
   id="path4609"
   inkscape:connector-curvature="0"
   style="stroke-width:0.94550705" />
	</g>
</g>
<g
   id="g4619"
   transform="matrix(1,0,0,1.1185885,1.7647059e-7,-30.358646)"
   style="stroke-width:0.94550705">
	<g
   id="g4617"
   style="stroke-width:0.94550705">
		<path
   d="m 329.143,210.286 v 73.143 H 384 c 5.047,0 9.143,4.096 9.143,9.143 0,5.047 -4.096,9.143 -9.143,9.143 H 320 109.714 v 91.429 H 192 420.571 v -100.573 -73.143 -9.143 h -91.428 z m -54.857,128 h -128 c -5.047,0 -9.143,-4.096 -9.143,-9.143 0,-5.047 4.096,-9.143 9.143,-9.143 h 128 c 5.047,0 9.143,4.096 9.143,9.143 0,5.047 -4.096,9.143 -9.143,9.143 z m 82.285,0 H 320 c -5.047,0 -9.143,-4.096 -9.143,-9.143 0,-5.047 4.096,-9.143 9.143,-9.143 h 36.571 c 5.047,0 9.143,4.096 9.143,9.143 0,5.047 -4.096,9.143 -9.143,9.143 z M 384,265.143 h -27.429 c -5.047,0 -9.143,-4.096 -9.143,-9.143 0,-5.047 4.096,-9.143 9.143,-9.143 H 384 c 5.047,0 9.143,4.096 9.143,9.143 0,5.047 -4.096,9.143 -9.143,9.143 z"
   id="path4615"
   inkscape:connector-curvature="0"
   style="stroke-width:0.94550705" />
	</g>
</g>
<g
   id="g4625"
   transform="matrix(1,0,0,1.1185885,1.7647059e-7,-30.358646)"
   style="stroke-width:0.94550705">
	<g
   id="g4623"
   style="stroke-width:0.94550705">
		<path
   d="M 329.143,137.143 V 192 h 91.429 V 137.143 Z M 384,173.714 h -18.286 c -5.047,0 -9.143,-4.096 -9.143,-9.143 0,-5.047 4.096,-9.143 9.143,-9.143 H 384 c 5.047,0 9.143,4.096 9.143,9.143 0,5.047 -4.096,9.143 -9.143,9.143 z"
   id="path4621"
   inkscape:connector-curvature="0"
   style="stroke-width:0.94550705" />
	</g>
</g>
<g
   id="g4627">
</g>
<g
   id="g4629">
</g>
<g
   id="g4631">
</g>
<g
   id="g4633">
</g>
<g
   id="g4635">
</g>
<g
   id="g4637">
</g>
<g
   id="g4639">
</g>
<g
   id="g4641">
</g>
<g
   id="g4643">
</g>
<g
   id="g4645">
</g>
<g
   id="g4647">
</g>
<g
   id="g4649">
</g>
<g
   id="g4651">
</g>
<g
   id="g4653">
</g>
<g
   id="g4655">
</g>
</svg>